
<svg id="visual" 
viewBox="0 420 900 110" width="420" height="120" 
xmlns="http://www.w3.org/2000/svg" 
xmlns:xlink="http://www.w3.org/1999/xlink" version="1.1">
<path d="M0 357L21.5 367C43 377 86 397 128.8 398.5C171.7 400 214.3 383 257.2 382.8C300 382.7 343 399.3 385.8 401C428.7 402.7 471.3 389.3 514.2 385.3C557 381.3 600 386.7 642.8 385.2C685.7 383.7 728.3 375.3 771.2 376.7C814 378 857 389 878.5 394.5L900 400L900 601L878.5 601C857 601 814 601 771.2 601C728.3 601 685.7 601 642.8 601C600 601 557 601 514.2 601C471.3 601 428.7 601 385.8 601C343 601 300 601 257.2 601C214.3 601 171.7 601 128.8 601C86 601 43 601 21.5 601L0 601Z" fill="#f7690f"></path><path d="M0 464L21.5 452.5C43 441 86 418 128.8 412.2C171.7 406.3 214.3 417.7 257.2 425.7C300 433.7 343 438.3 385.8 439.2C428.7 440 471.3 437 514.2 438.3C557 439.7 600 445.3 642.8 445.5C685.7 445.7 728.3 440.3 771.2 439.2C814 438 857 441 878.5 442.5L900 444L900 601L878.5 601C857 601 814 601 771.2 601C728.3 601 685.7 601 642.8 601C600 601 557 601 514.2 601C471.3 601 428.7 601 385.8 601C343 601 300 601 257.2 601C214.3 601 171.7 601 128.8 601C86 601 43 601 21.5 601L0 601Z" fill="#f97c16"></path><path d="M0 476L21.5 470C43 464 86 452 128.8 455.2C171.7 458.3 214.3 476.7 257.2 476.3C300 476 343 457 385.8 449C428.7 441 471.3 444 514.2 449.2C557 454.3 600 461.7 642.8 460.2C685.7 458.7 728.3 448.3 771.2 449.7C814 451 857 464 878.5 470.5L900 477L900 601L878.5 601C857 601 814 601 771.2 601C728.3 601 685.7 601 642.8 601C600 601 557 601 514.2 601C471.3 601 428.7 601 385.8 601C343 601 300 601 257.2 601C214.3 601 171.7 601 128.8 601C86 601 43 601 21.5 601L0 601Z" fill="#fa8e21"></path><path d="M0 499L21.5 504.5C43 510 86 521 128.8 525.3C171.7 529.7 214.3 527.3 257.2 519C300 510.7 343 496.3 385.8 496.8C428.7 497.3 471.3 512.7 514.2 514C557 515.3 600 502.7 642.8 497.8C685.7 493 728.3 496 771.2 496.7C814 497.3 857 495.7 878.5 494.8L900 494L900 601L878.5 601C857 601 814 601 771.2 601C728.3 601 685.7 601 642.8 601C600 601 557 601 514.2 601C471.3 601 428.7 601 385.8 601C343 601 300 601 257.2 601C214.3 601 171.7 601 128.8 601C86 601 43 601 21.5 601L0 601Z" fill="#fb9f2e"></path><path d="M0 547L21.5 547.3C43 547.7 86 548.3 128.8 549.3C171.7 550.3 214.3 551.7 257.2 552.2C300 552.7 343 552.3 385.8 551.5C428.7 550.7 471.3 549.3 514.2 547.7C557 546 600 544 642.8 545.3C685.7 546.7 728.3 551.3 771.2 552.3C814 553.3 857 550.7 878.5 549.3L900 548L900 601L878.5 601C857 601 814 601 771.2 601C728.3 601 685.7 601 642.8 601C600 601 557 601 514.2 601C471.3 601 428.7 601 385.8 601C343 601 300 601 257.2 601C214.3 601 171.7 601 128.8 601C86 601 43 601 21.5 601L0 601Z" fill="#fcaf3c"></path></svg>